<svg xmlns="http://www.w3.org/2000/svg" viewBox="0 0 512 512">
  <rect width="512" height="512" rx="80" fill="#1a1a2e"/>
  <!-- Omega shape using bezier paths, no font dependency -->
  <path d="
    M256 76
    C176 76 112 140 112 220
    C112 276 140 324 184 352
    L164 396 L204 396 L204 376
    C220 384 238 388 256 388
    C274 388 292 384 308 376
    L308 396 L348 396 L328 352
    C372 324 400 276 400 220
    C400 140 336 76 256 76 Z
    M256 348
    C196 348 152 290 152 220
    C152 162 200 116 256 116
    C312 116 360 162 360 220
    C360 290 316 348 256 348 Z
  " fill="#c8a96e"/>
</svg>
